HIERARCHY
ROOT Hips
{
  OFFSET 365.14 88.179 197.519
  CHANNELS 6 Xposition Yposition Zposition Zrotation Xrotation Yrotation
  JOINT RightUpLeg
  {
    OFFSET -9.25084 -1.53971 -0.0324706
    CHANNELS 3 Zrotation Xrotation Yrotation
    JOINT RightLeg
    {
      OFFSET 0.0147984 -41.8767 0.0743683
      CHANNELS 3 Zrotation Xrotation Yrotation
      JOINT RightFoot
      {
        OFFSET 0.58129 -42.7665 -0.0966173
        CHANNELS 3 Zrotation Xrotation Yrotation
        End Site
        {
          OFFSET 0 -7.69 17.5
        }
      }
    }
  }
  JOINT LeftUpLeg
  {
    OFFSET 9.27183 -1.63567 0.0208533
    CHANNELS 3 Zrotation Xrotation Yrotation
    JOINT LeftLeg
    {
      OFFSET 0.0380064 -41.894 -0.0332375
      CHANNELS 3 Zrotation Xrotation Yrotation
      JOINT LeftFoot
      {
        OFFSET -0.00137207 -40.7578 0.276477
        CHANNELS 3 Zrotation Xrotation Yrotation
        End Site
        {
          OFFSET 0 -7.69 17.5
        }
      }
    }
  }
  JOINT Spine
  {
    OFFSET 0.0273715 14.2953 0.0132618
    CHANNELS 3 Zrotation Xrotation Yrotation
    JOINT Spine1
    {
      OFFSET 0.0356242 9.71545 0.0178671
      CHANNELS 3 Zrotation Xrotation Yrotation
      JOINT Spine2
      {
        OFFSET 0.0275401 10.1205 0.00234803
        CHANNELS 3 Zrotation Xrotation Yrotation
        JOINT Spine3
        {
          OFFSET 0.0388833 9.71499 0.00573168
          CHANNELS 3 Zrotation Xrotation Yrotation
          JOINT Neck
          {
            OFFSET 0.0812761 10.3796 0.11061
            CHANNELS 3 Zrotation Xrotation Yrotation
            JOINT Head
            {
              OFFSET 0.0694951 9.4737 0.0873993
              CHANNELS 3 Zrotation Xrotation Yrotation
              End Site
              {
                OFFSET 0 15.95 0
              }
            }
          }
          JOINT RightShoulder
          {
            OFFSET -3.16911 6.92878 0.0176909
            CHANNELS 3 Zrotation Xrotation Yrotation
            JOINT RightArm
            {
              OFFSET -12.7939 0.0472484 0.0511932
              CHANNELS 3 Zrotation Xrotation Yrotation
              JOINT RightForeArm
              {
                OFFSET -26.5086 -0.00989181 0.0576382
                CHANNELS 3 Zrotation Xrotation Yrotation
                JOINT RightHand
                {
                  OFFSET -26.0357 0.339815 -0.212656
                  CHANNELS 3 Zrotation Xrotation Yrotation
                  JOINT RightHandThumb1
                  {
                    OFFSET -2.48905 0.190105 3.12053
                    CHANNELS 3 Zrotation Xrotation Yrotation
                    JOINT RightHandThumb2
                    {
                      OFFSET -3.68274 0 0
                      CHANNELS 3 Zrotation Xrotation Yrotation
                      JOINT RightHandThumb3
                      {
                        OFFSET -2.55832 0 0
                        CHANNELS 3 Zrotation Xrotation Yrotation
                        End Site
                        {
                          OFFSET -2.194 0 0
                        }
                      }
                    }
                  }
                  JOINT RightInHandIndex
                  {
                    OFFSET -3.22368 0.508421 1.97842
                    CHANNELS 3 Zrotation Xrotation Yrotation
                    JOINT RightHandIndex1
                    {
                      OFFSET -5.21684 -0.091368 0.999158
                      CHANNELS 3 Zrotation Xrotation Yrotation
                      JOINT RightHandIndex2
                      {
                        OFFSET -3.61937 0 0
                        CHANNELS 3 Zrotation Xrotation Yrotation
                        JOINT RightHandIndex3
                        {
                          OFFSET -2.0521 0 0
                          CHANNELS 3 Zrotation Xrotation Yrotation
                          End Site
                          {
                            OFFSET -1.805 0 0
                          }
                        }
                      }
                    }
                  }
                  JOINT RightInHandMiddle
                  {
                    OFFSET -3.38211 0.517263 0.756737
                    CHANNELS 3 Zrotation Xrotation Yrotation
                    JOINT RightHandMiddle1
                    {
                      OFFSET -5.17411 -0.084 0.313895
                      CHANNELS 3 Zrotation Xrotation Yrotation
                      JOINT RightHandMiddle2
                      {
                        OFFSET -3.94947 0 0
                        CHANNELS 3 Zrotation Xrotation Yrotation
                        JOINT RightHandMiddle3
                        {
                          OFFSET -2.47579 0 0
                          CHANNELS 3 Zrotation Xrotation Yrotation
                          End Site
                          {
                            OFFSET -1.975 0 0
                          }
                        }
                      }
                    }
                  }
                  JOINT RightInHandRing
                  {
                    OFFSET -3.36516 0.537895 -0.128947
                    CHANNELS 3 Zrotation Xrotation Yrotation
                    JOINT RightHandRing1
                    {
                      OFFSET -4.63474 -0.022105 -0.478947
                      CHANNELS 3 Zrotation Xrotation Yrotation
                      JOINT RightHandRing2
                      {
                        OFFSET -3.44238 0 0
                        CHANNELS 3 Zrotation Xrotation Yrotation
                        JOINT RightHandRing3
                        {
                          OFFSET -2.3881 0 0
                          CHANNELS 3 Zrotation Xrotation Yrotation
                          End Site
                          {
                            OFFSET -1.857 0 0
                          }
                        }
                      }
                    }
                  }
                  JOINT RightInHandPinky
                  {
                    OFFSET -3.16105 0.469368 -1.20179
                    CHANNELS 3 Zrotation Xrotation Yrotation
                    JOINT RightHandPinky1
                    {
                      OFFSET -4.14105 -0.022105 -1.09053
                      CHANNELS 3 Zrotation Xrotation Yrotation
                      JOINT RightHandPinky2
                      {
                        OFFSET -2.75653 0 0
                        CHANNELS 3 Zrotation Xrotation Yrotation
                        JOINT RightHandPinky3
                        {
                          OFFSET -1.74189 0 0
                          CHANNELS 3 Zrotation Xrotation Yrotation
                          End Site
                          {
                            OFFSET -1.645 0 0
                          }
                        }
                      }
                    }
                  }
                }
              }
            }
          }
          JOINT LeftShoulder
          {
            OFFSET 3.24184 6.89832 -0.0228965
            CHANNELS 3 Zrotation Xrotation Yrotation
            JOINT LeftArm
            {
              OFFSET 12.8376 -0.0155948 -0.0448787
              CHANNELS 3 Zrotation Xrotation Yrotation
              JOINT LeftForeArm
              {
                OFFSET 26.5019 -0.0237061 -0.00609661
                CHANNELS 3 Zrotation Xrotation Yrotation
                JOINT LeftHand
                {
                  OFFSET 25.9931 -0.0767526 0.00928659
                  CHANNELS 3 Zrotation Xrotation Yrotation
                  JOINT LeftHandThumb1
                  {
                    OFFSET 2.48905 0.190105 3.12053
                    CHANNELS 3 Zrotation Xrotation Yrotation
                    JOINT LeftHandThumb2
                    {
                      OFFSET 3.68274 0 0
                      CHANNELS 3 Zrotation Xrotation Yrotation
                      JOINT LeftHandThumb3
                      {
                        OFFSET 2.55832 0 0
                        CHANNELS 3 Zrotation Xrotation Yrotation
                        End Site
                        {
                          OFFSET 2.194 0 0
                        }
                      }
                    }
                  }
                  JOINT LeftInHandIndex
                  {
                    OFFSET 3.22368 0.508421 1.97842
                    CHANNELS 3 Zrotation Xrotation Yrotation
                    JOINT LeftHandIndex1
                    {
                      OFFSET 5.21684 -0.091368 0.999158
                      CHANNELS 3 Zrotation Xrotation Yrotation
                      JOINT LeftHandIndex2
                      {
                        OFFSET 3.61937 0 0
                        CHANNELS 3 Zrotation Xrotation Yrotation
                        JOINT LeftHandIndex3
                        {
                          OFFSET 2.0521 0 0
                          CHANNELS 3 Zrotation Xrotation Yrotation
                          End Site
                          {
                            OFFSET 1.805 0 0
                          }
                        }
                      }
                    }
                  }
                  JOINT LeftInHandMiddle
                  {
                    OFFSET 3.38211 0.517263 0.756737
                    CHANNELS 3 Zrotation Xrotation Yrotation
                    JOINT LeftHandMiddle1
                    {
                      OFFSET 5.17411 -0.084 0.313895
                      CHANNELS 3 Zrotation Xrotation Yrotation
                      JOINT LeftHandMiddle2
                      {
                        OFFSET 3.94947 0 0
                        CHANNELS 3 Zrotation Xrotation Yrotation
                        JOINT LeftHandMiddle3
                        {
                          OFFSET 2.47579 0 0
                          CHANNELS 3 Zrotation Xrotation Yrotation
                          End Site
                          {
                            OFFSET 1.975 0 0
                          }
                        }
                      }
                    }
                  }
                  JOINT LeftInHandRing
                  {
                    OFFSET 3.36516 0.537895 -0.128947
                    CHANNELS 3 Zrotation Xrotation Yrotation
                    JOINT LeftHandRing1
                    {
                      OFFSET 4.63474 -0.022105 -0.478947
                      CHANNELS 3 Zrotation Xrotation Yrotation
                      JOINT LeftHandRing2
                      {
                        OFFSET 3.44238 0 0
                        CHANNELS 3 Zrotation Xrotation Yrotation
                        JOINT LeftHandRing3
                        {
                          OFFSET 2.3881 0 0
                          CHANNELS 3 Zrotation Xrotation Yrotation
                          End Site
                          {
                            OFFSET 1.857 0 0
                          }
                        }
                      }
                    }
                  }
                  JOINT LeftInHandPinky
                  {
                    OFFSET 3.16105 0.469368 -1.20179
                    CHANNELS 3 Zrotation Xrotation Yrotation
                    JOINT LeftHandPinky1
                    {
                      OFFSET 4.14105 -0.022105 -1.09053
                      CHANNELS 3 Zrotation Xrotation Yrotation
                      JOINT LeftHandPinky2
                      {
                        OFFSET 2.75653 0 0
                        CHANNELS 3 Zrotation Xrotation Yrotation
                        JOINT LeftHandPinky3
                        {
                          OFFSET 1.74189 0 0
                          CHANNELS 3 Zrotation Xrotation Yrotation
                          End Site
                          {
                            OFFSET 1.645 0 0
                          }
                        }
                      }
                    }
                  }
                }
              }
            }
          }
        }
      }
    }
  }
}
MOTION
Frames: 3
Frame Time: 0.00833333
1.499937038252252535e+02 2.735088426184098314e-04 -1.383961108968905299e-02 1.345892133487411151e-02 3.058244992907597354e-02 5.804891882792638513e-02 -7.121362933645380977e-02 -1.513643111300172484e-02 -1.065143767901887556e-01 -3.481173884797684939e-03 1.111344337656105033e-02 -2.065191940762532360e-02 6.177095649933551924e-03 4.438065289334793581e-04 1.199806312253806802e-02 -3.356379857557344887e-02 -2.790888814925314085e-02 -7.897680736857527750e-02 1.014939225741533745e-02 -2.255744475194558507e-02 -4.937541614419495468e-04 -2.739599336057499217e-03 1.734870950881364088e-02 -5.293877802599877835e-04 -4.043286654788488255e-01 1.786078869964936588e-01 2.589808594635945038e-01 -8.957944385836506818e-02 6.596211568359786059e-02 4.399067136280048612e-02 -1.462173225615729932e-01 1.072864860418566296e-01 6.342392593756916719e-02 2.731125592218920650e-02 -2.363359183023976823e-02 -1.647101177777354764e-02 2.739801094821205443e-02 -2.368757654456495054e-02 -1.643173166012568479e-02 4.809016966652231995e-01 -4.732160517090732155e-01 -2.948621478281880370e-01 4.444274311045494086e-01 -5.546242349291118368e-01 -2.283804663906288668e-01 7.471171683367554273e-02 -9.565390424483358189e-02 -8.018327041963946300e-02 -3.489069455511982554e+00 1.147190855607345128e+00 -4.130465903950640616e+00 2.616200924518759408e+00 -2.043946962472094064e+00 2.882677518574698006e+00 0.000000000000000000e+00 0.000000000000000000e+00 0.000000000000000000e+00 4.322306607650405837e-15 -4.789977406554796190e-16 0.000000000000000000e+00 9.101998747439356139e-15 8.145060193158179223e-15 0.000000000000000000e+00 6.503074153561036675e-15 -8.614558501885484627e-17 2.340000346688332827e-15 0.000000000000000000e+00 0.000000000000000000e+00 0.000000000000000000e+00 0.000000000000000000e+00 1.991094853678690022e-14 8.653263510580356171e-14 0.000000000000000000e+00 3.566636438886525751e-15 4.081736431647320277e-14 6.503074153561036675e-15 -8.614558501885484627e-17 2.340000346688332827e-15 0.000000000000000000e+00 -1.756154831821929035e-14 -1.408725573870537674e-14 0.000000000000000000e+00 2.753324721636934615e-14 7.254822430995926021e-14 0.000000000000000000e+00 9.915088218618902835e-15 3.587323130894958113e-14 6.503074153561036675e-15 -8.614558501885484627e-17 2.340000346688332827e-15 0.000000000000000000e+00 0.000000000000000000e+00 0.000000000000000000e+00 0.000000000000000000e+00 2.306739247809989505e-14 5.294917362683695475e-14 0.000000000000000000e+00 -3.514393856679269503e-15 4.538128003276862064e-14 6.503074153561036675e-15 -8.614558501885484627e-17 2.340000346688332827e-15 0.000000000000000000e+00 0.000000000000000000e+00 0.000000000000000000e+00 0.000000000000000000e+00 3.374848942724953584e-14 1.447083468291243191e-14 0.000000000000000000e+00 8.342558232193281751e-15 3.220552009842043969e-14 4.853744391091542321e-01 -5.691165131220685680e-01 -9.419053432716317786e-02 -4.605234829199424118e-02 5.104877619769245325e-03 2.942145967045164262e-02 -1.714640631354954342e-02 5.517722872313803040e-02 -3.120061229487790244e-02 -8.642317327590595330e-03 8.127841722421836126e-03 -5.720146064228381899e-03 0.000000000000000000e+00 0.000000000000000000e+00 0.000000000000000000e+00 -1.598883107339885190e-14 1.436308813444756859e-14 0.000000000000000000e+00 -1.066618043261188219e-14 7.068530720216603427e-15 0.000000000000000000e+00 -1.988312152154883378e-15 6.288767240013257925e-15 -2.061502634970387335e-15 0.000000000000000000e+00 0.000000000000000000e+00 0.000000000000000000e+00 0.000000000000000000e+00 7.478993261385231147e-16 -2.342627712985863044e-14 0.000000000000000000e+00 -5.311641578964726930e-16 -1.379075969984721119e-14 -1.988312152154883378e-15 6.288767240013257925e-15 -2.061502634970387335e-15 0.000000000000000000e+00 1.553225815920095176e-14 -1.584045122141312701e-14 0.000000000000000000e+00 2.878301758387466872e-15 -1.368543821255123819e-14 0.000000000000000000e+00 2.109214212686895981e-15 -2.128568259449907522e-14 -1.988312152154883378e-15 6.288767240013257925e-15 -2.061502634970387335e-15 0.000000000000000000e+00 0.000000000000000000e+00 0.000000000000000000e+00 0.000000000000000000e+00 5.752672014903901051e-15 -2.742631114434776383e-14 0.000000000000000000e+00 -1.375212324665890518e-14 -6.400415589723984654e-15 -1.988312152154883378e-15 6.288767240013257925e-15 -2.061502634970387335e-15 0.000000000000000000e+00 0.000000000000000000e+00 0.000000000000000000e+00 0.000000000000000000e+00 1.073057582366271085e-15 -1.251633401817777121e-14 0.000000000000000000e+00 7.623874687113279789e-16 1.626921225938089224e-17
1.499960761260078925e+02 -1.850283870197478621e-03 -5.714020398041991938e-03 -3.997194973912031324e-02 -5.606114012811463931e-02 -3.545615660173248584e-02 3.509110813447156862e-02 5.624644943949184961e-02 6.366905254742828701e-02 -1.132886329535876674e-02 -1.787975971484115703e-02 2.755292125988878862e-02 8.604004542584522616e-03 1.270810517776637012e-02 -3.574417904750439370e-04 -1.541678905028691891e-02 6.502090656908073030e-02 9.453399418985939176e-03 -2.174826819105246667e-02 1.206626494133077564e-02 3.843774145549585380e-02 7.210445309819043906e-03 -7.922573585363358942e-03 7.067002154653255659e-03 -2.611599302040464310e-01 1.401398253920851100e-01 1.997091439051730533e-01 -5.308689774402000627e-02 4.752218217816987084e-02 3.659745279561038567e-02 -8.782764885706546842e-02 7.560554882314288183e-02 5.394462231860134432e-02 1.752939124207768956e-02 -1.431828284182597513e-02 -1.052710296849786002e-02 1.758579237250297231e-02 -1.434859019854341396e-02 -1.050841853772463245e-02 3.683681082512755278e-01 -2.774839868433808809e-01 -3.808365754115755064e-01 2.870617756091857764e-01 -2.812872953854061997e-01 -1.626242848909701666e-01 1.434789524049820686e-01 -1.162122685475689560e-01 -8.410251739010900229e-02 -2.452416456280637647e+00 8.961811674316513265e-01 -2.857706671460869874e+00 1.970259711687017079e+00 -1.531459779094552554e+00 2.199589996456024821e+00 0.000000000000000000e+00 0.000000000000000000e+00 0.000000000000000000e+00 1.402209920065993318e-15 -4.252207477493263706e-15 0.000000000000000000e+00 -4.081941650726281280e-14 6.615746204761305050e-15 0.000000000000000000e+00 4.001993145562898404e-15 -1.316855546890138218e-15 5.491787983716347798e-15 0.000000000000000000e+00 0.000000000000000000e+00 0.000000000000000000e+00 0.000000000000000000e+00 -2.996554575973900571e-15 -6.311992775871102547e-15 0.000000000000000000e+00 -6.408333591069638479e-15 -1.557771191351094389e-14 4.001993145562898404e-15 -1.316855546890138218e-15 5.491787983716347798e-15 0.000000000000000000e+00 -2.813379250258526235e-14 -3.147539890555248942e-14 0.000000000000000000e+00 8.634043384001761760e-17 -9.209274176009470485e-15 0.000000000000000000e+00 -7.291089958970242196e-15 -2.190117461941043693e-14 4.001993145562898404e-15 -1.316855546890138218e-15 5.491787983716347798e-15 0.000000000000000000e+00 0.000000000000000000e+00 0.000000000000000000e+00 0.000000000000000000e+00 1.818901596594097441e-14 -6.333028654102988363e-15 0.000000000000000000e+00 4.233589577618855215e-15 2.459025131941682168e-14 4.001993145562898404e-15 -1.316855546890138218e-15 5.491787983716347798e-15 0.000000000000000000e+00 0.000000000000000000e+00 0.000000000000000000e+00 0.000000000000000000e+00 -8.086232951488834457e-15 -2.032647424902300125e-14 0.000000000000000000e+00 5.047905619742956594e-16 -9.298909265147979659e-15 2.609229903589981858e-01 -3.349394699960813737e-01 -8.087022331694372623e-02 -6.753004831276997189e-02 -3.607209003361986147e-03 8.338965296939009064e-02 -1.932018957722994312e-01 2.032510446925497871e-01 -2.093191404457744875e-01 2.587156451816406081e-04 8.470245708857123551e-03 -2.631460739670756031e-03 0.000000000000000000e+00 0.000000000000000000e+00 0.000000000000000000e+00 -1.213539696988349598e-14 1.247771707260466417e-14 0.000000000000000000e+00 1.311587271080500985e-15 9.447718236142278418e-15 0.000000000000000000e+00 -3.750490123590166631e-15 1.185245621973307630e-15 -3.332020209449594014e-15 0.000000000000000000e+00 0.000000000000000000e+00 0.000000000000000000e+00 0.000000000000000000e+00 -1.595751829292491965e-15 6.673079772996924387e-15 0.000000000000000000e+00 -4.697879147289350752e-15 -1.184971511254088202e-14 -3.750490123590166631e-15 1.185245621973307630e-15 -3.332020209449594014e-15 0.000000000000000000e+00 2.679540397845921896e-15 -4.385183933100641530e-15 0.000000000000000000e+00 -1.400826984315393647e-15 2.284561820357307702e-16 0.000000000000000000e+00 -3.372865993289632264e-15 -7.669458670896696643e-15 -3.750490123590166631e-15 1.185245621973307630e-15 -3.332020209449594014e-15 0.000000000000000000e+00 0.000000000000000000e+00 0.000000000000000000e+00 0.000000000000000000e+00 -2.912591374320373464e-15 -4.719845829267203764e-15 0.000000000000000000e+00 -3.443277455450181499e-15 -4.842424613893862062e-16 -3.750490123590166631e-15 1.185245621973307630e-15 -3.332020209449594014e-15 0.000000000000000000e+00 0.000000000000000000e+00 0.000000000000000000e+00 0.000000000000000000e+00 -6.870421756997091907e-15 -9.748176604793044304e-15 0.000000000000000000e+00 -9.668998661816895146e-15 8.684466742044097445e-15
1.499973094474029551e+02 -5.017929361474058117e-03 -2.713560529750784316e-03 -5.307747628454012601e-02 -6.754641490971757811e-02 -6.772859862077730553e-02 7.434633721410746632e-02 6.858562707649638879e-02 1.103468874972381303e-01 -1.176612888414615456e-02 -2.559518250190936581e-02 4.753508152621209459e-02 8.963877127627063734e-03 1.555785110124125598e-02 -6.130087271163292550e-03 1.991710313170430915e-02 7.974357772927130605e-02 5.550284852194845714e-02 -4.160180482674346453e-02 2.986350202358851319e-02 4.453551101581948446e-02 1.222054706663706566e-02 -1.940777390976611283e-02 9.556763500490421046e-03 -7.605903180011647224e-02 6.012267561093263823e-02 9.119373478359270313e-02 -7.589958936406542532e-03 1.758343836789161979e-02 1.900816979022675393e-02 -2.177614785337935246e-02 2.668606516364749673e-02 2.904212894533561573e-02 7.397134755421434262e-03 -1.858339520715889329e-03 -5.073656942374387899e-03 7.420336039841228873e-03 -1.870358540167678732e-03 -5.098693517743073736e-03 1.713482858047908897e-01 -6.911145214461868191e-02 -2.531958934066628197e-01 1.108082451489964121e-01 -1.735904201190024629e-02 -7.969156245853259435e-02 7.219685973967812642e-02 -6.192157312898766142e-02 -4.273236039691519911e-02 -1.319451748859040041e+00 4.719050979327171769e-01 -1.505413958842590327e+00 1.192546798060711843e+00 -9.244958312660651600e-01 1.362035454848724125e+00 0.000000000000000000e+00 0.000000000000000000e+00 0.000000000000000000e+00 1.442703342988202175e-14 -6.541821293168647608e-15 0.000000000000000000e+00 -1.851841758181191934e-14 3.084465566456479033e-16 0.000000000000000000e+00 4.876318251334975745e-15 7.303938305534530203e-15 3.487300145425120751e-15 0.000000000000000000e+00 0.000000000000000000e+00 0.000000000000000000e+00 0.000000000000000000e+00 7.704923502362475843e-15 -6.170220503052835117e-15 0.000000000000000000e+00 2.523151409552602400e-15 -1.560011747859436545e-14 4.876318251334975745e-15 7.303938305534530203e-15 3.487300145425120751e-15 0.000000000000000000e+00 -1.343391215248484264e-14 7.920008353923768295e-15 0.000000000000000000e+00 1.958439026906512120e-14 4.369516235821145767e-15 0.000000000000000000e+00 8.696224671043628542e-16 -1.175288145061842506e-14 4.876318251334975745e-15 7.303938305534530203e-15 3.487300145425120751e-15 0.000000000000000000e+00 0.000000000000000000e+00 0.000000000000000000e+00 0.000000000000000000e+00 4.927611713972479584e-15 1.747501036828044640e-14 0.000000000000000000e+00 -2.969554512032270841e-15 1.670129615074833805e-14 4.876318251334975745e-15 7.303938305534530203e-15 3.487300145425120751e-15 0.000000000000000000e+00 0.000000000000000000e+00 0.000000000000000000e+00 0.000000000000000000e+00 -1.293463107130891501e-14 -3.952463768128395600e-15 0.000000000000000000e+00 5.155983479103162754e-16 -6.264530728684818909e-15 4.255701598227201038e-02 -7.784368248855211281e-02 -5.128829476059680592e-02 -3.027584085822490265e-02 5.202587986294917102e-03 5.710115270025310080e-02 -1.732128594559938228e-01 2.176279420022950439e-01 -1.957974761298236221e-01 -7.025496884954002437e-03 8.357332003434898501e-03 -2.643686667803454588e-03 0.000000000000000000e+00 0.000000000000000000e+00 0.000000000000000000e+00 -4.755115969655244693e-15 3.982819132237228124e-15 0.000000000000000000e+00 1.126075843040928931e-14 -3.737503025883532829e-15 0.000000000000000000e+00 -2.125521494680343307e-15 -4.093922115485095503e-15 2.282191678586196097e-16 0.000000000000000000e+00 0.000000000000000000e+00 0.000000000000000000e+00 0.000000000000000000e+00 2.466320351752989887e-15 -1.355753228272828295e-15 0.000000000000000000e+00 2.135859689806939721e-15 -1.612534129218297140e-14 -2.125521494680343307e-15 -4.093922115485095503e-15 2.282191678586196097e-16 0.000000000000000000e+00 2.320729690825860652e-15 -1.642833515180478824e-14 0.000000000000000000e+00 -1.122850239169280212e-15 -1.376378968653557417e-14 0.000000000000000000e+00 4.551960121554915736e-15 -9.949131888728395335e-15 -2.125521494680343307e-15 -4.093922115485095503e-15 2.282191678586196097e-16 0.000000000000000000e+00 0.000000000000000000e+00 0.000000000000000000e+00 0.000000000000000000e+00 4.177775848968820524e-15 -1.672523674316637505e-14 0.000000000000000000e+00 4.531147141117167558e-17 -3.971130213322396036e-15 -2.125521494680343307e-15 -4.093922115485095503e-15 2.282191678586196097e-16 0.000000000000000000e+00 0.000000000000000000e+00 0.000000000000000000e+00 0.000000000000000000e+00 6.925501796525492805e-15 -9.621929667425089177e-15 0.000000000000000000e+00 -8.054763089761148885e-15 4.282217564657523965e-15
